# xmcd
#
# Track frame offsets: 
#        150
#        17999
#        33675
#        51829
#
# Disc length: 1116 seconds
#
# Revision: 0
# Processed by: cddbd v1.5.2PL0 Copyright (c) Steve Scherf et al.
# Submitted via: ExactAudioCopy v0.99pb5
#
DISCID=31045a04
DTITLE=Zykos - Recorded at the Bubble
DYEAR=2002
DGENRE=Native American
TTITLE0=Listening Pills
TTITLE1=Comedy Horn
TTITLE2=Hilarious Proof
TTITLE3=Understanding Fire (Live)
EXTD=
EXTT0=
EXTT1=
EXTT2=
EXTT3=
PLAYORDER=
